<?xml version="1.0" standalone="no"?><!DOCTYPE svg PUBLIC "-//W3C//DTD SVG 1.1//EN" "http://www.w3.org/Graphics/SVG/1.1/DTD/svg11.dtd"><svg t="1759975978978" class="icon" viewBox="0 0 1024 1024" version="1.1" xmlns="http://www.w3.org/2000/svg" p-id="10607" width="48" height="48" xmlns:xlink="http://www.w3.org/1999/xlink"><path d="M477.67552 161.5872a39.60832 39.60832 0 0 1 68.64896 0l369.90976 640.73728a39.60832 39.60832 0 0 1-34.32448 59.392H142.1312a39.60832 39.60832 0 0 1-34.32448-59.392l369.90976-640.73728z" fill="#FFDA3B" p-id="10608"></path><path d="M512 207.83104l347.05408 601.088H164.94592L512 207.83104z m34.32448-46.24384a39.60832 39.60832 0 0 0-68.64896 0L107.76576 802.32448a39.60832 39.60832 0 0 0 34.32448 59.392H881.8688a39.60832 39.60832 0 0 0 34.32448-59.392L546.32448 161.5872z" fill="#000000" p-id="10609"></path><path d="M480.0512 628.736l-14.66368-240.4352h93.3888l-11.264 240.4352h-67.50208zM477.92128 673.87392h66.56v66.60096h-66.56v-66.60096z" fill="#000000" p-id="10610"></path><path d="M61.44 440.32h901.12v204.8H61.44z" fill="#000000" p-id="10611"></path><path d="M218.64448 583.68v-87.36768h26.91072c7.65952 0 14.5408 1.76128 20.56192 5.24288a35.88096 35.88096 0 0 1 14.21312 14.7456c3.39968 6.3488 5.12 13.59872 5.12 21.7088v4.01408c0 8.15104-1.67936 15.36-5.03808 21.7088A35.67616 35.67616 0 0 1 266.24 578.3552a41.12384 41.12384 0 0 1-20.56192 5.28384h-27.0336z m18.0224-72.78592v58.32704h8.68352c7.04512 0 12.41088-2.29376 16.13824-6.88128 3.72736-4.62848 5.61152-11.18208 5.7344-19.74272v-4.62848c0-8.88832-1.8432-15.60576-5.5296-20.15232-3.6864-4.62848-9.09312-6.92224-16.13824-6.92224h-8.88832zM371.13856 565.6576h-31.5392l-6.02112 18.0224h-19.12832l32.52224-87.36768h16.67072l32.72704 87.36768h-19.16928l-6.06208-18.0224z m-26.66496-14.5408h21.83168l-10.97728-32.72704-10.8544 32.72704zM500.1216 583.68h-18.0224l-35.0208-57.46688v57.46688h-18.0224v-87.36768h18.0224l35.10272 57.58976v-57.58976h17.94048v87.36768zM609.56672 572.6208a31.49824 31.49824 0 0 1-13.76256 9.09312 58.08128 58.08128 0 0 1-19.6608 3.15392 39.3216 39.3216 0 0 1-19.94752-4.9152 33.46432 33.46432 0 0 1-13.18912-14.37696 50.87232 50.87232 0 0 1-4.75136-22.1184v-5.98016c0-8.72448 1.47456-16.26112 4.38272-22.60992a32.64512 32.64512 0 0 1 12.6976-14.66368 36.61824 36.61824 0 0 1 19.53792-5.07904c10.36288 0 18.432 2.4576 24.28928 7.45472 5.85728 4.9152 9.29792 12.0832 10.40384 21.504h-17.53088a17.32608 17.32608 0 0 0-5.3248-10.97728 16.83456 16.83456 0 0 0-11.30496-3.4816 15.9744 15.9744 0 0 0-13.96736 6.92224c-3.19488 4.58752-4.83328 11.4688-4.87424 20.48v5.61152c0 9.17504 1.76128 16.09728 5.24288 20.76672 3.4816 4.66944 8.56064 7.00416 15.27808 7.00416 6.7584 0 11.59168-1.4336 14.45888-4.3008v-15.07328h-16.384v-13.27104h34.4064v34.85696zM701.31712 545.83296h-34.57024v23.38816h40.5504v14.45888H648.8064v-87.36768h58.44992v14.58176h-40.46848v20.80768h34.57024v14.1312zM774.79936 551.7312h-14.336v31.9488h-18.0224v-87.36768h32.48128c10.32192 0 18.26816 2.29376 23.87968 6.92224 5.61152 4.58752 8.3968 11.0592 8.3968 19.49696a26.86976 26.86976 0 0 1-3.8912 14.90944 26.29632 26.29632 0 0 1-11.71456 9.50272l18.92352 35.67616v0.86016h-19.33312l-16.384-31.9488z m-14.336-14.62272h14.49984c4.5056 0 8.02816-1.14688 10.52672-3.39968a12.45184 12.45184 0 0 0 3.6864-9.54368 13.1072 13.1072 0 0 0-3.52256-9.70752c-2.29376-2.37568-5.89824-3.56352-10.73152-3.56352h-14.45888v26.2144z" fill="#FFFFFF" p-id="10612"></path></svg>